<?xml version="1.0" encoding="UTF-8"?>
<svg id="Livello_2" data-name="Livello 2" xmlns="http://www.w3.org/2000/svg" viewBox="0 0 1694.06 693.52">
  <defs>
    <style>
      .cls-1 {
        fill: #ffdc04;
      }
    </style>
  </defs>
  <g id="Livello_1-2" data-name="Livello 1">
    <g>
      <path d="M752.59,127.27c4.16-.6,8.31-1.19,12.47-1.79,1.29.26,2.66-.04,4.01-.19,13.14-1.5,26.02-1.65,38.51.07,16.45,2.28,30.77,7.85,41.5,18.77,9.23,9.44,14.93,21,18.79,33.65,1,3.28,1.14,3.31,4.38.99,28.3-20.36,56.77-40.68,84.95-61.56,14.74-10.97,30.26-19.57,47.56-24.42,5.93-1.66,11.88-2.67,17.81-4.21,3.98-.57,7.95-1.14,11.93-1.71,1.2.26,2.48,0,3.74-.15,12.41-1.44,24.59-1.59,36.43-.06,17.13,2.23,32.14,7.94,43.28,19.77,8.82,9.4,14.42,20.83,18.17,33.41.55,1.86,1.01,2.95,3.58,1.25,31.29-20.76,62.81-41.36,93.99-62.71,17.48-12.02,35.49-21.9,55.37-26.72,5.13-1.24,10.27-2.34,15.41-3.5,4.16-.6,8.31-1.19,12.47-1.79.97,0,1.94.08,2.92-.04,8.15-.99,16.16-1.12,24.07-.65,30.09,1.81,53.1,13.82,66.39,39.68.83,1.63,1.75,1.55,3.34.55,9.28-5.82,18.59-11.59,27.88-17.42,21.96-13.81,43.95-27.65,65.89-41.69,4.61-2.96,9.14-4.86,14.32-5.59,48.86-6.81,97.74-13.86,146.61-20.83,5.69-.81,5.65-.8,5.88,5.07.51,12.83,1.04,25.65,1.59,38.48.8,18.6,1.63,37.21,2.43,55.83.78,18.26,1.54,36.54,2.32,54.82.79,18.66,1.61,37.32,2.4,55.99.69,16.47,1.35,32.96,2.04,49.45.78,18.71,1.58,37.42,2.36,56.15.76,18.37,1.5,36.74,2.26,55.13.77,18.76,1.56,37.53,2.33,56.31.68,16.66,1.31,33.33,2.03,50,.22,4.96.23,5.07-4.33,6.72-16.96,6.13-33.92,12.26-50.87,18.33-10.87,3.88-21.67,7.99-32.56,11.78-21.75,7.54-43.41,15.46-65.1,23.15-9.89,3.49-19.74,7.12-29.64,10.53-22.92,7.86-45.76,15.98-68.62,23.97-8.22,2.86-16.42,5.84-24.65,8.67-23.55,8.07-47.16,15.78-70.6,24.1-12.33,4.36-24.53,8.03-37.31,7.85-5.37-.08-10.82.6-16.24.94-12.34.76-24.68,1.48-37.02,2.33-2.58.18-3.64-.56-3.61-3.21.04-3.42-.34-6.8-.52-10.19-.16-3.08-.31-3.22-3.24-2.19-16.44,5.79-32.87,11.6-49.3,17.34-2.65.92-5.24,2.08-8.08,2.25-23.52,1.41-47.05,2.89-70.57,4.34-3.52.22-3.7-.11-3.22-3.59,1.26-9.07,2.43-18.14,3.69-27.22.25-1.84-.5-2.12-2.1-1.49-.51.2-1.03.39-1.54.58-27.07,10.24-54.12,20.45-81.18,30.49-11.42,4.22-22.71,9.03-34.7,10.91-5.04.79-10.09,1.42-15.13,2.12l-4.79.29c-5.69-.34-11.46.09-17.15-.36-27.27-2.16-48.56-12.87-61.91-34.91-1.14-1.87-2.34-1.73-4.3-.92-29.58,12.21-59.17,24.25-88.72,36.25-11.58,4.68-23.05,9.69-35.43,11.54-5.03.75-10.08,1.38-15.11,2.06-1.78.11-3.55.22-5.33.33-.96-.06-1.91-.21-2.88-.16-8.18.47-16.27.26-24.29-.57-26.79-2.76-48.17-12.52-59.48-35.25-.84-1.68-1.95-1.49-3.58-.75-26.55,12.05-53.14,23.91-79.61,35.88-11.84,5.32-23.68,10.45-36.61,12.4-5.03.75-10.07,1.36-15.1,2.03-1.78.11-3.55.22-5.33.33-1.19-.33-2.44-.18-3.68-.11-11.23.59-22.29.09-33.11-1.77-15.46-2.63-29.18-7.93-39.59-18.14-1.24-1.21-2.4-1.03-3.95-.27-16.04,7.85-32.11,15.61-48.12,23.43-2.48,1.21-4.91,1.88-7.66,2.05-41.45,2.52-82.9,5.1-124.36,7.67-10.74.66-21.48,1.28-32.22,2.02-2.55.18-3.45-.59-3.45-2.67,0-3.43-.29-6.83-.35-10.26-.27-14.97-.57-29.93-.74-44.9-.09-7.97.05-15.96.06-23.94,0-.64.35-1.52-.5-1.8-.82-.28-1.46.48-2.11.87-2.56,1.56-5.1,3.14-7.63,4.73-22.36,13.95-44.71,27.8-67.02,41.57-24.22,14.85-48.42,29.58-72.55,44.26-2.11,1.28-4.17,1.94-6.68,2.09-23.26,1.39-46.51,2.85-69.77,4.29-.71.04-1.42.07-2.13.11-1.51.09-2.31-.44-2.3-1.69,0-.86-.03-1.72-.03-2.58,0-45.83,0-91.66,0-137.49,0-58.36.01-116.72-.04-175.08,0-2.34.68-4.28,2.64-6.35,12.65-13.46,25.15-27.05,37.73-40.67,17.21-18.7,34.44-37.49,51.71-56.39,15.49-17.02,31.08-34.07,46.46-51.33,2.4-2.7,4.79-3.92,8.48-4.43,38.93-5.46,77.86-11.06,116.8-16.61,9.14-1.3,18.23-2.14,27.22-2.1,16.34.08,31.03,3.22,43.19,11.17,9.27,6.1,16.21,13.87,21.18,23.07.91,1.69,1.7,1.72,3.4.12,4.78-4.5,9.68-8.93,14.53-13.39,13.83-12.76,27.67-25.57,41.5-38.45,1.59-1.49,3.24-2.47,5.53-2.8,60.52-8.6,121.04-17.25,181.56-25.88,3.54-.51,3.74-.33,3.68,2.93-.23,11.59-.48,23.19-.72,34.78-.2,9.69-.41,19.38-.59,29.07-.01.68-.37,1.62.45,1.91.86.31,1.44-.62,2.1-1.06.54-.36,1.03-.79,1.54-1.19,26.27-20.86,52.65-41.79,78.86-63.07,14.01-11.43,29.61-19.29,46.74-24.27,6.18-1.8,12.41-2.88,18.6-4.46Z"/>
      <g>
        <g>
          <path class="cls-1" d="M143.43,597.71l2.02-374.45,118.96-16.87c24.7-3.5,44.37-1.72,58.46,5.33,14.13,7.12,24.33,18.93,30.33,35.11,6.17,16.71,9.14,37.6,8.82,62.04-.31,23.61-3.29,44.72-8.88,62.73-5.38,17.34-14.8,31.44-28,41.9-13.1,10.35-32.12,16.86-56.54,19.39l-43.6,4.52-1.28,154.1-80.29,6.2ZM225.51,376.87l10.94-1.25c19.84-2.26,32.4-8.8,37.33-19.45,4.31-9.32,6.48-21.96,6.65-38.63.16-15.61-1.73-27.2-5.77-35.42-3.2-6.48-11.39-13.61-32.23-10.87l-16.06,2.11-.86,103.5Z"/>
          <path d="M264.37,211.08c23.43-3.3,41.95-1.67,55.04,4.89,13.36,6.74,22.65,17.53,28.39,32.98,6.02,16.27,8.91,36.67,8.6,60.61-.3,23.18-3.21,43.87-8.67,61.45-5.06,16.3-13.84,29.5-26.09,39.21-12.06,9.53-29.89,15.58-52.99,17.99l-38.01,3.97-11.2,1.17-.08,9.31-1.17,144.64-69.17,5.39,2.05-365.63,113.3-15.98M219.86,382.16l11.22-1.27,5.33-.6c22.36-2.53,36.68-10.26,42.56-22.98,4.58-9.92,6.9-23.16,7.08-40.46.17-16.23-1.84-28.38-6.14-37.13-3.82-7.75-13.43-16.31-37.44-13.14l-10.43,1.38-11.27,1.49-.08,9.31-.76,94.09-.08,9.31M264.46,201.7l-124.63,17.77-1.99,383.26,91.41-6.98,1.31-154.25,38-3.91c25.86-2.66,45.89-9.58,60.09-20.79,14.21-11.26,24.18-26.13,29.91-44.6,5.73-18.5,8.77-39.85,9.09-64.02.33-25.07-2.68-46.24-9.04-63.47-6.37-17.19-17.13-29.61-32.28-37.24-15.16-7.58-35.79-9.49-61.87-5.77h0ZM231.16,371.56l.8-94.28,10.43-1.36c14.26-1.86,23.26,1,27.01,8.59,3.75,7.61,5.55,18.85,5.4,33.71-.16,15.91-2.24,28.18-6.22,36.81-3.99,8.62-14.69,13.92-32.09,15.92l-5.33.61h0Z"/>
        </g>
        <g>
          <polygon class="cls-1" points="415.2 576.74 421.05 184.17 598.41 159.02 596.97 229.1 504.47 241.2 502.9 330.46 591.37 320.16 589.98 388.09 501.71 397.4 499.89 500.57 597.64 491.91 596.17 562.77 415.2 576.74"/>
          <path d="M592.66,164.77l-1.23,60.12-81.24,10.69-11.27,1.48-.17,9.76-1.39,79.42-.17,9.76,11.23-1.3,77.23-8.92-1.18,57.96-77.08,8.19-11.21,1.19-.17,9.76-1.63,93.31-.17,9.76,11.16-.98,86.57-7.6-1.25,60.88-169.86,13.25,5.79-383.3,166.04-23.42M604.16,153.25l-188.69,26.91-5.92,401.82,192.08-14.67,1.69-80.87-97.76,8.74,1.67-93.49,88.25-9.24,1.61-77.91-88.49,10.37,1.42-79.57,92.48-12.02,1.66-80.08h0Z"/>
        </g>
        <g>
          <path class="cls-1" d="M758.98,554.07c-40.59,3.11-69.87-3.72-87.03-20.22-17.35-16.55-25.71-45.2-24.81-85.21l.8-35.83,81.23-8.17-1.18,47.86c-.27,10.74,1.35,18.87,4.94,24.88,2.83,4.75,8.89,10.18,21.72,9.06,10.42-.91,17.99-4.62,22.5-11.03,4.06-5.78,6.19-14.18,6.49-25.67.36-13.52-.84-24.93-3.57-33.89-2.78-9.11-7.84-17.65-15.03-25.37-6.92-7.4-16.65-15.92-28.92-25.31l-41.16-31.38c-29.54-22.02-44.16-49.53-43.44-81.97.76-34.19,10.28-61.68,28.3-81.79,17.87-20.01,43.93-32.61,77.46-37.39,41.22-5.87,70.42-.14,86.8,17.12,15.96,16.96,23.82,45.35,23.4,84.37l-84.28,10.5.64-24.23c.19-7.22-2.07-12.7-6.73-16.29-4.62-3.56-10.89-4.84-18.61-3.82-9.21,1.21-16.26,4.66-20.97,10.23-4.44,5.25-6.78,11.52-6.95,18.64-.16,6.66,1.63,13.6,5.34,20.64,3.71,7.07,10.8,14.48,21.67,22.67l52.84,40.95c10.37,8.05,19.95,16.84,28.49,26.13,8.34,9.11,15.05,20.25,19.93,33.11,4.86,12.84,7.04,29.22,6.48,48.68-1.13,39.44-9.88,71.29-25.96,94.59-15.55,22.45-42.59,35.26-80.39,38.16Z"/>
          <path d="M757.16,137.72c39.39-5.58,67.12-.27,82.4,15.83,14.5,15.39,21.99,40.99,22.3,76.12l-72.89,9.14.51-19.14c.23-8.65-2.57-15.3-8.33-19.75-5.68-4.37-13.26-5.96-22.51-4.73-13.65,1.81-21.32,7.88-25.35,12.65-5.32,6.3-8.12,13.7-8.32,22.02-.18,7.4,1.78,15.03,5.81,22.69,4,7.62,11.48,15.49,22.81,24.02l52.9,41c10.16,7.89,19.56,16.52,27.95,25.64,7.98,8.71,14.41,19.39,19.11,31.74,4.66,12.28,6.74,28.07,6.2,46.91-1.1,38.39-9.5,69.23-24.97,91.62-14.62,21.1-39.36,32.68-75.66,35.49-38.94,3.01-66.83-3.33-82.91-18.79-16.44-15.69-24.34-43.28-23.47-82.07l.69-30.86,70.02-6.99-1.05,42.75c-.28,11.58,1.53,20.48,5.54,27.19,4.98,8.35,14.41,12.37,26.58,11.32,15.46-1.34,23.33-8.19,27.22-13.71,4.71-6.7,7.16-16.06,7.49-28.59.37-14.02-.89-25.91-3.75-35.34-2.97-9.73-8.34-18.83-15.98-27.03-7.08-7.56-16.98-16.25-29.41-25.76l-41.19-31.41c-28.78-21.45-42.44-47.1-41.74-78.57.74-32.96,9.76-59.29,26.82-78.34,16.96-18.99,40.9-30.48,73.18-35.05M757.41,127.55c-35.38,5.07-62.64,18.34-81.73,39.73-19.08,21.28-29,49.67-29.78,85.25-.75,34,14.3,62.38,45.12,85.35l41.17,31.4c12.14,9.29,21.6,17.58,28.4,24.83,6.79,7.28,11.48,15.18,14.08,23.7,2.6,8.53,3.73,19.35,3.39,32.44-.27,10.35-2.1,17.93-5.49,22.75-3.39,4.81-9.32,7.59-17.79,8.34-8.12.72-13.75-1.56-16.88-6.81-3.13-5.25-4.57-12.76-4.33-22.56l1.32-52.97-92.44,9.37-.9,40.8c-.92,41.43,7.81,70.85,26.16,88.35,18.32,17.61,48.7,24.86,91.14,21.64,39.98-3.03,68.34-16.6,85.11-40.82,16.79-24.33,25.79-56.87,26.97-97.56.58-20.18-1.67-37-6.75-50.45-5.09-13.43-12.01-24.92-20.76-34.48-8.75-9.53-18.42-18.39-28.99-26.6l-52.86-40.96c-10.27-7.73-17.09-14.82-20.48-21.29-3.39-6.45-5.01-12.65-4.86-18.59.15-5.93,2.01-11.01,5.57-15.24,3.57-4.23,9.1-6.83,16.58-7.82,6.24-.82,11.14.15,14.71,2.9,3.57,2.75,5.28,7.04,5.13,12.85l-.76,29.31,95.56-11.83c1.24-43.12-6.89-74.03-24.4-92.65-17.54-18.49-47.95-24.6-91.19-18.41h0Z"/>
        </g>
        <g>
          <path class="cls-1" d="M1024.9,533.71c-40.59,3.11-69.78-4.11-86.78-21.38-17.19-17.33-25.27-47.25-24.01-89.01l1.13-37.39,81.23-8.17-1.62,49.91c-.36,11.2,1.18,19.69,4.71,25.96,2.78,4.96,8.79,10.65,21.63,9.53,10.42-.91,18.02-4.75,22.59-11.41,4.11-6.01,6.31-14.76,6.72-26.74.48-14.1-.62-25.99-3.26-35.35-2.7-9.51-7.67-18.44-14.79-26.51-6.85-7.75-16.49-16.67-28.66-26.52l-40.83-32.93c-29.31-23.12-43.66-51.91-42.64-85.76,1.08-35.67,10.84-64.31,29.02-85.19,18.03-20.77,44.17-33.76,77.7-38.53,41.22-5.87,70.34.28,86.53,18.37,15.79,17.77,23.39,47.4,22.62,88.06l-84.28,10.5.85-25.26c.25-7.52-1.96-13.25-6.57-17.03-4.59-3.73-10.83-5.11-18.56-4.09-9.21,1.21-16.28,4.77-21.03,10.55-4.48,5.45-6.87,11.98-7.11,19.4-.22,6.94,1.51,14.19,5.14,21.56,3.64,7.39,10.65,15.16,21.44,23.76l52.41,42.96c10.28,8.44,19.78,17.65,28.23,27.38,8.25,9.53,14.86,21.17,19.62,34.59,4.74,13.4,6.77,30.48,6.04,50.75-1.48,41.1-10.5,74.25-26.79,98.48-15.74,23.35-42.88,36.61-80.67,39.51Z"/>
          <path d="M1026.85,99.52c39.39-5.58,67.04.12,82.16,17,14.35,16.13,21.59,42.85,21.6,79.46l-72.89,9.14.68-19.95c.31-9.02-2.43-15.96-8.14-20.64-5.64-4.59-13.19-6.29-22.44-5.06-13.65,1.81-21.37,8.1-25.44,13.05-5.37,6.54-8.23,14.25-8.51,22.92-.25,7.71,1.64,15.69,5.6,23.7,3.92,7.97,11.32,16.21,22.57,25.17l52.48,43.01c10.08,8.27,19.39,17.31,27.69,26.86,7.9,9.12,14.22,20.28,18.8,33.16,4.54,12.82,6.49,29.28,5.78,48.91-1.44,40-10.11,72.12-25.76,95.39-14.79,21.94-39.63,33.94-75.93,36.75-38.94,3.01-66.75-3.7-82.68-19.89-16.28-16.43-23.92-45.24-22.7-85.72l.98-32.2,70.02-6.99-1.44,44.58c-.39,12.08,1.34,21.36,5.29,28.38,4.9,8.73,14.29,12.96,26.45,11.91,15.46-1.34,23.39-8.45,27.32-14.2,4.77-6.97,7.3-16.71,7.75-29.78.5-14.62-.65-27.02-3.43-36.86-2.88-10.16-8.16-19.67-15.72-28.25-7-7.92-16.82-17.02-29.15-27l-40.87-32.96c-28.55-22.53-41.97-49.36-40.97-82.2,1.04-34.39,10.29-61.82,27.51-81.59,17.11-19.71,41.12-31.55,73.41-36.12M1027.2,88.91c-35.38,5.07-62.72,18.75-81.99,40.95-19.25,22.09-29.42,51.66-30.53,88.79-1.06,35.48,13.71,65.18,44.28,89.29l40.84,32.95c12.04,9.75,21.42,18.43,28.15,26.03,6.71,7.62,11.33,15.88,13.86,24.78,2.52,8.91,3.55,20.19,3.09,33.84-.36,10.79-2.26,18.69-5.69,23.7-3.43,5.01-9.38,7.88-17.85,8.63-8.12.72-13.72-1.67-16.8-7.16-3.08-5.48-4.45-13.33-4.12-23.54l1.8-55.24-92.44,9.37-1.28,42.58c-1.3,43.24,7.15,73.97,25.32,92.29,18.15,18.44,48.43,26.1,90.88,22.88,39.98-3.03,68.44-17.09,85.42-42.27,17-25.29,26.28-59.18,27.81-101.57.76-21.02-1.34-38.57-6.3-52.6-4.97-14.01-11.78-26.02-20.44-36.02-8.66-9.97-18.24-19.26-28.72-27.86l-52.44-42.98c-10.19-8.12-16.94-15.55-20.26-22.31-3.33-6.75-4.89-13.22-4.69-19.41.2-6.19,2.1-11.48,5.71-15.86,3.6-4.39,9.15-7.08,16.64-8.06,6.24-.82,11.13.22,14.67,3.1,3.54,2.89,5.21,7.37,5,13.43l-1.03,30.56,95.56-11.83c1.63-44.93-6.22-77.19-23.54-96.69-17.35-19.38-47.66-25.93-90.91-19.74h0Z"/>
        </g>
        <g>
          <path class="cls-1" d="M1291.34,513.31c-35.32,2.7-62.17-5.74-79.82-25-17.86-19.34-26.17-49.36-24.67-89.32l8.11-215.93c1.4-37.3,11.9-67.13,31.24-88.74,19.26-21.62,47.43-35.23,83.69-40.4,36.26-5.16,63.64.72,81.35,17.57,17.77,17.03,25.93,45.24,24.27,83.76l-9.61,223.01c-1.78,41.26-12.61,73.88-32.19,96.88-19.35,22.65-47.06,35.46-82.37,38.16ZM1308.24,127.75c-13.31,1.76-29.44,10.84-30.76,44.13l-8.9,224.33c-.61,15.41.92,26.17,4.69,32.89,4.19,7.51,11.75,11.03,21.86,10.14,17.76-1.55,27.41-17.95,28.67-48.75l9.3-226.43c1.35-32.91-12.77-37.92-24.86-36.33Z"/>
          <path d="M1309.66,59.46c34.64-4.91,60.66.6,77.31,16.45,16.8,16.09,24.5,43.05,22.91,80.06l-9.57,222.83c-1.71,39.82-12.02,71.14-30.64,93.01-18.45,21.59-44,33.33-78.11,35.97-34.12,2.64-58.88-5.04-75.71-23.41-16.99-18.4-24.87-47.28-23.41-85.9l8.15-216.11c1.35-35.89,11.3-64.41,29.57-84.84,18.11-20.32,44.86-33.15,79.51-38.05M1294.9,444.78c11.21-.97,20.61-7.52,26.47-18.46,4.75-8.88,7.37-20.77,8.02-36.35l9.34-226.61c1.63-39.51-18.26-42.74-30.26-41.15-13,1.73-35.04,10.56-36.61,50.37l-8.86,224.15c-.65,16.37,1.09,27.98,5.31,35.5,3.61,6.46,11.15,13.88,26.61,12.54M1310.11,48.4c-38.06,5.45-67.36,19.73-87.87,42.75-20.49,22.9-31.45,53.75-32.9,92.63l-8.07,215.75c-1.55,41.47,7.09,72.34,25.93,92.72,18.8,20.51,46.77,29.41,83.93,26.6s66.03-16.23,86.64-40.35c20.63-24.25,31.88-57.86,33.74-100.76l9.65-223.19c1.74-40.22-6.8-69.41-25.63-87.46-18.86-17.94-47.33-24.14-85.39-18.69h0ZM1295.35,433.71c-8.12.72-13.83-1.87-17.11-7.76-3.29-5.88-4.64-15.97-4.07-30.27l8.94-224.52c.92-23.2,9.23-35.83,24.91-37.89,13.9-1.82,20.39,8.68,19.45,31.5l-9.26,226.24c-1.11,27.22-8.74,41.45-22.86,42.69h0Z"/>
        </g>
        <g>
          <path class="cls-1" d="M1611.18,484.44l-2.87-77.5-66.43,5.84-9.4,77.73-79.09,6.1,64.95-468.08,149.72-21.23,19.88,471.21-76.77,5.92ZM1550.69,347.23l54.58-5.3-9.27-254.33-14.68,1.94-30.64,257.69Z"/>
          <path d="M1662.65,13.85l19.47,459.29-65.56,5.11-2.47-67.06-.39-10.49-10.22.91-56.16,4.99-10.33.92-1.29,10.64-8.1,67.03-67.81,5.29,63.44-456.96,139.43-19.67M1544.39,353.55l12.05-1.16,42.45-4.09,12.19-1.17-.44-12.47-8.81-243.08-.39-10.43-10.34,1.38-4.28.57-10.46,1.39-1.28,10.74-29.22,245.91-1.47,12.41M1673.49.75l-160.01,22.82-66.47,479.18,90.36-6.9,9.41-77.78,56.14-4.89,2.88,77.45,87.98-6.72L1673.49.75h0ZM1556.98,340.9l29.3-246.29,4.28-.56,8.89,242.7-42.47,4.16h0Z"/>
        </g>
      </g>
    </g>
  </g>
</svg>